# xmcd CD database file
#
# Track frame offsets:
#	150
#	33717
#	65312
#	93567
#	120690
#	147922
#	176272
#	207750
#	226032
#
# Disc length: 3713 seconds
#
# Revision: 2
# Processed by: cddbd v1.5.1PL2 Copyright (c) Steve Scherf et al.
# Submitted via: CDex 1.51
#
DISCID=740e7f09
DTITLE=Relaxation with Music and Nature - Chinese Garden
DYEAR=2000
DGENRE=New Age
TTITLE0=Garden of Angels
TTITLE1=Zen
TTITLE2=Silk Road
TTITLE3=Chinese Impressions
TTITLE4=Silent Moods
TTITLE5=Lotus Garden
TTITLE6=Tai Chi
TTITLE7=Harmony of Life
TTITLE8=Chinese Garden
EXTD=YEAR: 2000
EXTT0=
EXTT1=
EXTT2=
EXTT3=
EXTT4=
EXTT5=
EXTT6=
EXTT7=
EXTT8=
PLAYORDER=
